<?xml version="1.0" encoding="UTF-8"?>
<svg width="1024" height="1024" viewBox="0 0 1024 1024" xmlns="http://www.w3.org/2000/svg">
  <!-- Background with gradient -->
  <defs>
    <linearGradient id="bgGradient" x1="0%" y1="0%" x2="100%" y2="100%">
      <stop offset="0%" style="stop-color:#2563EB;stop-opacity:1" />
      <stop offset="100%" style="stop-color:#1E40AF;stop-opacity:1" />
    </linearGradient>
  </defs>
  
  <rect width="1024" height="1024" fill="url(#bgGradient)" rx="180"/>
  
  <!-- Main Symbol -->
  <!-- Center -->
  <circle cx="512" cy="512" r="100" fill="#FFFFFF" opacity="0.95"/>
  
  <!-- Top -->
  <circle cx="512" cy="280" r="60" fill="#F59E0B" opacity="0.9"/>
  <line x1="512" y1="412" x2="512" y2="340" stroke="#FFFFFF" stroke-width="14" opacity="0.7"/>
  
  <!-- Top Right -->
  <circle cx="680" cy="370" r="52" fill="#10B981" opacity="0.9"/>
  <line x1="590" y1="466" x2="642" y2="408" stroke="#FFFFFF" stroke-width="12" opacity="0.6"/>
  
  <!-- Right -->
  <circle cx="730" cy="540" r="48" fill="#F59E0B" opacity="0.85"/>
  <line x1="612" y1="522" x2="682" y2="538" stroke="#FFFFFF" stroke-width="12" opacity="0.6"/>
  
  <!-- Bottom Right -->
  <circle cx="660" cy="690" r="55" fill="#10B981" opacity="0.9"/>
  <line x1="580" y1="580" x2="626" y2="652" stroke="#FFFFFF" stroke-width="13" opacity="0.6"/>
  
  <!-- Bottom -->
  <circle cx="512" cy="750" r="52" fill="#FFFFFF" opacity="0.85"/>
  <line x1="512" y1="612" x2="512" y2="698" stroke="#FFFFFF" stroke-width="14" opacity="0.7"/>
  
  <!-- Bottom Left -->
  <circle cx="355" cy="680" r="48" fill="#F59E0B" opacity="0.9"/>
  <line x1="440" y1="576" x2="382" y2="646" stroke="#FFFFFF" stroke-width="12" opacity="0.6"/>
  
  <!-- Left -->
  <circle cx="295" cy="530" r="52" fill="#10B981" opacity="0.9"/>
  <line x1="412" y1="516" x2="347" y2="528" stroke="#FFFFFF" stroke-width="13" opacity="0.6"/>
  
  <!-- Top Left -->
  <circle cx="360" cy="380" r="55" fill="#FFFFFF" opacity="0.85"/>
  <line x1="438" y1="454" x2="392" y2="418" stroke="#FFFFFF" stroke-width="13" opacity="0.6"/>
  
  <!-- Inner "i" for information -->
  <circle cx="512" cy="478" r="14" fill="#2563EB"/>
  <rect x="505" y="500" width="14" height="52" fill="#2563EB" rx="7"/>
</svg>