<?xml version="1.0" encoding="UTF-8"?>
<svg width="1200" height="400" viewBox="0 0 1200 400" xmlns="http://www.w3.org/2000/svg">
  <!-- Background -->
  <rect width="1200" height="400" fill="#FFFFFF"/>
  
  <!-- Icon part -->
  <g transform="translate(50, 50)">
    <!-- Circle background -->
    <circle cx="150" cy="150" r="150" fill="#1F2937"/>
    
    <!-- Center node -->
    <circle cx="150" cy="150" r="35" fill="#FFFFFF"/>
    
    <!-- Surrounding nodes -->
    <circle cx="150" cy="80" r="20" fill="#FFFFFF" opacity="0.8"/>
    <line x1="150" y1="115" x2="150" y2="100" stroke="#FFFFFF" stroke-width="5" opacity="0.6"/>
    
    <circle cx="210" cy="110" r="18" fill="#FFFFFF" opacity="0.7"/>
    <line x1="178" y1="133" x2="196" y2="122" stroke="#FFFFFF" stroke-width="4" opacity="0.5"/>
    
    <circle cx="230" cy="165" r="16" fill="#FFFFFF" opacity="0.6"/>
    <line x1="185" y1="157" x2="214" y2="164" stroke="#FFFFFF" stroke-width="4" opacity="0.5"/>
    
    <circle cx="205" cy="215" r="19" fill="#FFFFFF" opacity="0.7"/>
    <line x1="175" y1="177" x2="193" y2="202" stroke="#FFFFFF" stroke-width="4" opacity="0.5"/>
    
    <circle cx="150" cy="235" r="18" fill="#FFFFFF" opacity="0.6"/>
    <line x1="150" y1="185" x2="150" y2="217" stroke="#FFFFFF" stroke-width="5" opacity="0.6"/>
    
    <circle cx="100" cy="210" r="16" fill="#FFFFFF" opacity="0.7"/>
    <line x1="124" y1="175" x2="110" y2="197" stroke="#FFFFFF" stroke-width="4" opacity="0.5"/>
    
    <circle cx="80" cy="160" r="18" fill="#FFFFFF" opacity="0.8"/>
    <line x1="115" y1="154" x2="98" y2="159" stroke="#FFFFFF" stroke-width="4" opacity="0.5"/>
    
    <circle cx="105" cy="115" r="19" fill="#FFFFFF" opacity="0.7"/>
    <line x1="127" y1="131" x2="117" y2="127" stroke="#FFFFFF" stroke-width="4" opacity="0.5"/>
    
    <!-- Inner "i" -->
    <circle cx="150" cy="140" r="5" fill="#1F2937"/>
    <rect x="147" y="148" width="6" height="18" fill="#1F2937" rx="3"/>
  </g>
  
  <!-- Text: Philfomation -->
  <text x="370" y="230" font-family="Arial, sans-serif" font-size="110" font-weight="700" fill="#1F2937">Philfomation</text>
  
  <!-- Tagline -->
  <text x="372" y="280" font-family="Arial, sans-serif" font-size="32" font-weight="400" fill="#1F2937" opacity="0.6">Philippine Community Hub</text>
</svg>