<?xml version="1.0" encoding="UTF-8"?>
<svg width="1024" height="1024" viewBox="0 0 1024 1024" xmlns="http://www.w3.org/2000/svg">
  <!-- Background -->
  <rect width="1024" height="1024" fill="#FFFFFF" rx="200"/>

  <!-- Circle background -->
  <circle cx="512" cy="512" r="400" fill="#2563EB"/>

  <!-- Center node -->
  <circle cx="512" cy="512" r="95" fill="#FFFFFF" opacity="0.95"/>

  <!-- Surrounding nodes -->
  <circle cx="512" cy="325" r="55" fill="#F59E0B" opacity="0.9"/>
  <line x1="512" y1="417" x2="512" y2="380" stroke="#FFFFFF" stroke-width="14" opacity="0.7"/>

  <circle cx="672" cy="392" r="50" fill="#10B981" opacity="0.9"/>
  <line x1="588" y1="468" x2="636" y2="438" stroke="#FFFFFF" stroke-width="11" opacity="0.6"/>

  <circle cx="725" cy="540" r="44" fill="#F59E0B" opacity="0.85"/>
  <line x1="607" y1="530" x2="681" y2="543" stroke="#FFFFFF" stroke-width="11" opacity="0.6"/>

  <circle cx="660" cy="685" r="52" fill="#10B981" opacity="0.9"/>
  <line x1="580" y1="583" x2="628" y2="650" stroke="#FFFFFF" stroke-width="11" opacity="0.6"/>

  <circle cx="512" cy="720" r="50" fill="#FFFFFF" opacity="0.85"/>
  <line x1="512" y1="607" x2="512" y2="670" stroke="#FFFFFF" stroke-width="14" opacity="0.7"/>

  <circle cx="370" cy="670" r="44" fill="#F59E0B" opacity="0.9"/>
  <line x1="445" y1="578" x2="402" y2="635" stroke="#FFFFFF" stroke-width="11" opacity="0.6"/>

  <circle cx="320" cy="530" r="50" fill="#10B981" opacity="0.9"/>
  <line x1="417" y1="520" x2="370" y2="528" stroke="#FFFFFF" stroke-width="11" opacity="0.6"/>

  <circle cx="380" cy="400" r="52" fill="#FFFFFF" opacity="0.85"/>
  <line x1="440" y1="460" x2="415" y2="438" stroke="#FFFFFF" stroke-width="11" opacity="0.6"/>

  <!-- Inner "i" -->
  <circle cx="512" cy="485" r="14" fill="#2563EB"/>
  <rect x="504" y="507" width="16" height="50" fill="#2563EB" rx="8"/>
</svg>
