<?xml version="1.0" encoding="UTF-8"?>
<svg width="600" height="800" viewBox="0 0 600 800" xmlns="http://www.w3.org/2000/svg">
  <!-- Background -->
  <rect width="600" height="800" fill="#FFFFFF"/>
  
  <!-- Icon part -->
  <g transform="translate(150, 80)">
    <!-- Circle background -->
    <circle cx="150" cy="150" r="150" fill="#2563EB"/>
    
    <!-- Center node -->
    <circle cx="150" cy="150" r="35" fill="#FFFFFF" opacity="0.95"/>
    
    <!-- Surrounding nodes -->
    <circle cx="150" cy="80" r="20" fill="#F59E0B" opacity="0.9"/>
    <line x1="150" y1="115" x2="150" y2="100" stroke="#FFFFFF" stroke-width="5" opacity="0.7"/>
    
    <circle cx="210" cy="110" r="18" fill="#10B981" opacity="0.9"/>
    <line x1="178" y1="133" x2="196" y2="122" stroke="#FFFFFF" stroke-width="4" opacity="0.6"/>
    
    <circle cx="230" cy="165" r="16" fill="#F59E0B" opacity="0.85"/>
    <line x1="185" y1="157" x2="214" y2="164" stroke="#FFFFFF" stroke-width="4" opacity="0.6"/>
    
    <circle cx="205" cy="215" r="19" fill="#10B981" opacity="0.9"/>
    <line x1="175" y1="177" x2="193" y2="202" stroke="#FFFFFF" stroke-width="4" opacity="0.6"/>
    
    <circle cx="150" cy="235" r="18" fill="#FFFFFF" opacity="0.85"/>
    <line x1="150" y1="185" x2="150" y2="217" stroke="#FFFFFF" stroke-width="5" opacity="0.7"/>
    
    <circle cx="100" cy="210" r="16" fill="#F59E0B" opacity="0.9"/>
    <line x1="124" y1="175" x2="110" y2="197" stroke="#FFFFFF" stroke-width="4" opacity="0.6"/>
    
    <circle cx="80" cy="160" r="18" fill="#10B981" opacity="0.9"/>
    <line x1="115" y1="154" x2="98" y2="159" stroke="#FFFFFF" stroke-width="4" opacity="0.6"/>
    
    <circle cx="105" cy="115" r="19" fill="#FFFFFF" opacity="0.85"/>
    <line x1="127" y1="131" x2="117" y2="127" stroke="#FFFFFF" stroke-width="4" opacity="0.6"/>
    
    <!-- Inner "i" -->
    <circle cx="150" cy="140" r="5" fill="#2563EB"/>
    <rect x="147" y="148" width="6" height="18" fill="#2563EB" rx="3"/>
  </g>
  
  <!-- Text: Philfomation -->
  <text x="300" y="500" font-family="Arial, sans-serif" font-size="72" font-weight="700" fill="#1F2937" text-anchor="middle">Philfomation</text>
  
  <!-- Tagline -->
  <text x="300" y="550" font-family="Arial, sans-serif" font-size="28" font-weight="400" fill="#2563EB" opacity="0.8" text-anchor="middle">Philippine Community Hub</text>
  
  <!-- Additional tagline in Korean -->
  <text x="300" y="590" font-family="Arial, sans-serif" font-size="24" font-weight="300" fill="#1F2937" opacity="0.6" text-anchor="middle">필포메이션</text>
</svg>